PathFileType	4	(X/Y/Z)	C:\Users\chris\Documents\GitHub\baseballds\vids\pitch5_Sports2D\pitch5_Sports2D_m_person02.trc
DataRate	CameraRate	NumFrames	NumMarkers	Units	OrigDataRate	OrigDataStartFrame	OrigNumFrames
30	30	10	22	m	30	111	149
Frame#	Time	Hip			RHip			RKnee			RAnkle			RBigToe			RSmallToe			RHeel			LHip			LKnee			LAnkle			LBigToe			LSmallToe			LHeel			Neck			Head			Nose			RShoulder			RElbow			RWrist			LShoulder			LElbow			LWrist		
		X1	Y1	Z1	X2	Y2	Z2	X3	Y3	Z3	X4	Y4	Z4	X5	Y5	Z5	X6	Y6	Z6	X7	Y7	Z7	X8	Y8	Z8	X9	Y9	Z9	X10	Y10	Z10	X11	Y11	Z11	X12	Y12	Z12	X13	Y13	Z13	X14	Y14	Z14	X15	Y15	Z15	X16	Y16	Z16	X17	Y17	Z17	X18	Y18	Z18	X19	Y19	Z19	X20	Y20	Z20	X21	Y21	Z21	X22	Y22	Z22
111	3.6999999999999997	3.358625020335462	1.2428579621563371	0.0	3.374301974755433	1.2365693796485613	0.0	3.3871285884392295	1.16766430766579	0.0	3.348247866528492	1.1668955464265514	0.0	3.343977641870149	1.147602453446715	0.0	3.34932489438825	1.1422393234487453	0.0	3.336844133739641	1.1790991558414878	0.0	3.341720269612015	1.2353695050157754	0.0	3.356875673962504	1.164721008591086	0.0	3.363342564881295	1.1012972881132455	0.0	3.371496122186122	1.0886490934649078	0.0	3.366365367247886	1.0912114722674058	0.0	3.360836442808268	1.092900746142155	0.0	3.3642786514351193	1.330511269103558	0.0	3.368024889267374	1.3570657997757	0.0	3.377033089219338	1.348583872008711	0.0	3.392864585173698	1.319639500891849	0.0	3.4098840293533645	1.2804860557855984	0.0	3.39990955912093	1.2749895277938632	0.0	3.3307230818492104	1.314753696947931	0.0	3.301571738145078	1.2803813651753315	0.0	3.325330194065304	1.2632747681677177	0.0
112	3.7333333333333334	3.3643374107443553	1.2404998013603654	0.0	3.379681965147258	1.234283918590226	0.0	3.395821777724689	1.1679137528752082	0.0	3.3605909103514513	1.1673645535453756	0.0	3.3597490776102465	1.1533930647282813	0.0	3.3654244863703333	1.1436165624402506	0.0	3.3491082855167327	1.1773433888098974	0.0	3.3477078718760813	1.232506721102885	0.0	3.359857155902962	1.1654389795870892	0.0	3.362274565784468	1.1004425234663293	0.0	3.368184498966056	1.0877673358687938	0.0	3.363513986237253	1.0891146274467332	0.0	3.360967371898954	1.0923904703589011	0.0	3.3696914703915377	1.3284190594907905	0.0	3.372083745719349	1.353960621660689	0.0	3.3796356207814893	1.3467549395162797	0.0	3.3974633196827604	1.3192635999018436	0.0	3.4142056716916804	1.280379385632592	0.0	3.4128490867746075	1.275428870026987	0.0	3.336654452436101	1.3120191717818779	0.0	3.309090817709383	1.2754489953778108	0.0	3.335212276652451	1.262104183036201	0.0
113	3.7666666666666666	3.3704089333731826	1.2420245014154914	0.0	3.3861901595587636	1.235402292153729	0.0	3.4026113449572386	1.171773610311922	0.0	3.3713858934022527	1.1654710711386835	0.0	3.373598818898365	1.1501626790634367	0.0	3.377442992651473	1.1401266009082363	0.0	3.3600823671785736	1.1721168315561918	0.0	3.3540669731101294	1.233105352893369	0.0	3.3615667611612543	1.167727061184699	0.0	3.361466208410594	1.1002214603986828	0.0	3.365162894803482	1.0890004329998866	0.0	3.3603105342028474	1.088361040200701	0.0	3.361427138209836	1.0918412810834437	0.0	3.3756079755034976	1.3304682147989975	0.0	3.3776648423309683	1.355509577677093	0.0	3.3862311267219622	1.349096904645792	0.0	3.4022332950585064	1.322682209826509	0.0	3.4196652986452913	1.285119930453903	0.0	3.4239534370122917	1.2780130815913755	0.0	3.3429577820155103	1.3142172881006033	0.0	3.317985658963578	1.2752686838189744	0.0	3.3458010623418004	1.2663026803569293	0.0
114	3.8	3.3771230674256154	1.2474884740924006	0.0	3.393912793756257	1.240040077827498	0.0	3.4083293875796397	1.178341783051243	0.0	3.3811376708776373	1.1601295126869695	0.0	3.384305229137419	1.1357104912303706	0.0	3.385982358817451	1.1301768990799321	0.0	3.3706592324631135	1.1636714555298064	0.0	3.3607624445478463	1.2377343380154746	0.0	3.3631033413091025	1.1717937485340966	0.0	3.3612943685997028	1.102047678843486	0.0	3.36419436207709	1.0913005096592603	0.0	3.358367088190687	1.090197201942192	0.0	3.3619553825963613	1.092807393492496	0.0	3.382575183957953	1.3362152526030573	0.0	3.3853376692705366	1.3612304340967971	0.0	3.3959446073651858	1.355081674741329	0.0	3.4077280792060214	1.329396938925623	0.0	3.4233592495819702	1.2959244577800957	0.0	3.433163528230698	1.2823164469146273	0.0	3.3504089076707255	1.3203112759061444	0.0	3.3274919042992566	1.279901931370918	0.0	3.3550113035462297	1.2735852743003122	0.0
115	3.8333333333333335	3.3844052850223947	1.2548985699160862	0.0	3.402035273146174	1.2468353630582223	0.0	3.413948076442348	1.1849731050184658	0.0	3.3909707050824056	1.1513900384497469	0.0	3.3947527206892247	1.1171167849984767	0.0	3.395236644745884	1.11725668487736	0.0	3.3816164435473235	1.1518862721995093	0.0	3.367644191751446	1.244864466110608	0.0	3.365097163777822	1.17671423412482	0.0	3.3615593138677937	1.1066765344393419	0.0	3.365772521431561	1.0932812653306518	0.0	3.3589426848519275	1.0944347355307167	0.0	3.362226929888339	1.096705610691889	0.0	3.3901585436349007	1.3438538350203573	0.0	3.3940418391768556	1.3691286150520143	0.0	3.4054251496960166	1.3628813516873235	0.0	3.4138260615455875	1.3376774755083767	0.0	3.424037022759478	1.3103527412836953	0.0	3.4412156294174596	1.2884466372624226	0.0	3.3586022779372184	1.3280616283243638	0.0	3.3368250965821127	1.2872935325735515	0.0	3.3623153622851185	1.2811081206686186	0.0
116	3.8666666666666667	3.391396952876008	1.2620928913171843	0.0	3.409539190247149	1.2540509164565927	0.0	3.4195214598063193	1.1896589186821096	0.0	3.4019541442499595	1.1408682282680698	0.0	3.4075728493106165	1.1056548439005458	0.0	3.4082817706668656	1.1081686623322	0.0	3.3939494334048046	1.1376170263727348	0.0	3.374292585457034	1.2522950981919738	0.0	3.367589983227365	1.1822233878400215	0.0	3.3621757563096284	1.1145838944360642	0.0	3.368465008310284	1.0959465138537594	0.0	3.3606568343542347	1.099264459880605	0.0	3.362497483296436	1.1046042873956086	0.0	3.397452053819079	1.3513055832675975	0.0	3.402623064176861	1.3774900468564713	0.0	3.4141504558567406	1.3703596701364924	0.0	3.4196324008436902	1.3451611682360458	0.0	3.4237184296484187	1.3228767113652544	0.0	3.4471086663125163	1.294629843194121	0.0	3.3664937011613194	1.3355309306478123	0.0	3.3452169169354145	1.2953894599516285	0.0	3.3686126355774415	1.2876311622668573	0.0
117	3.9	3.397336958534866	1.2679980612439419	0.0	3.4158251546886977	1.2599045344417095	0.0	3.424475126017918	1.1922764681400877	0.0	3.4140143879985687	1.1310829681267456	0.0	3.4213413754533377	1.104976537156438	0.0	3.4237234349015315	1.1058069403046684	0.0	3.4081027845620957	1.1237616886698414	0.0	3.380411404605028	1.2582974998398098	0.0	3.3707566516245553	1.1888800694845119	0.0	3.3635044048937504	1.1259002116459855	0.0	3.3702140784627757	1.1025877803057311	0.0	3.3609440118880856	1.1052282316036353	0.0	3.3633571111187095	1.1170921231196165	0.0	3.404037462978009	1.3568854558679766	0.0	3.4104831105802265	1.3840111971899385	0.0	3.4227445913633234	1.3758231385555943	0.0	3.424513177159251	1.350413835441495	0.0	3.424836327932962	1.3303067073393298	0.0	3.451311589172847	1.2988069044102928	0.0	3.373604670731056	1.3412186742849797	0.0	3.3520397762302454	1.3029666065280683	0.0	3.3743842554636934	1.2929865858151275	0.0
118	3.933333333333333	3.4028404142901243	1.2720807862663333	0.0	3.421435636545787	1.2632860457427737	0.0	3.429004371877294	1.193498973482418	0.0	3.425862609239567	1.1246010221846297	0.0	3.4325782235058777	1.1098089958804689	0.0	3.4377465866310226	1.1076513103753318	0.0	3.4225389681848286	1.1146188953733749	0.0	3.3863655036292224	1.2622024820866802	0.0	3.37510943007434	1.1960203542287082	0.0	3.3662187308366383	1.139739718206725	0.0	3.370243327246403	1.114156153258153	0.0	3.3597516839824357	1.114931754220711	0.0	3.3655657382696353	1.134081215082881	0.0	3.4103349504934046	1.3597372091950994	0.0	3.4175132015104843	1.3866834013505922	0.0	3.4307173924609016	1.3785217129288634	0.0	3.429147515393557	1.3531956321121859	0.0	3.428325457620765	1.3331635390069085	0.0	3.455998818125636	1.3006688213302762	0.0	3.380248720895546	1.3444363728464	0.0	3.357776035950006	1.308695695389505	0.0	3.3795405264284506	1.2965850661112506	0.0
119	3.966666666666667	3.408843768795276	1.2739430088809782	0.0	3.4271274359016624	1.2641214122820237	0.0	3.4340347227041303	1.1936558986907007	0.0	3.4360639334015755	1.1223082040999868	0.0	3.439869082797716	1.1142108122257226	0.0	3.4481610757191095	1.1099795986153702	0.0	3.434756097389348	1.1118879105735864	0.0	3.392727748149059	1.2640750927309277	0.0	3.380889092623789	1.2015224471958181	0.0	3.3703757516237594	1.1549443648790276	0.0	3.3691858246958937	1.1290792466491055	0.0	3.3590938441239375	1.1284786602408685	0.0	3.369334834068245	1.1547016112814665	0.0	3.4168655982466287	1.3598248697441295	0.0	3.4238421116585522	1.3854945792897706	0.0	3.437671192307275	1.3785667150378427	0.0	3.434371331539239	1.3535140866098987	0.0	3.4338067286000573	1.3324840775313809	0.0	3.4621324691584237	1.3011207280698378	0.0	3.3869159677545837	1.3454322939119945	0.0	3.3635338606401586	1.3111789355562473	0.0	3.383541844626934	1.2975425104465201	0.0
120	4.0	3.4149343838496926	1.273269136306553	0.0	3.432650922021615	1.2629138167346972	0.0	3.439863940296733	1.1926930946747745	0.0	3.443599148311634	1.1222517233511449	0.0	3.4443982103599264	1.1160044180906123	0.0	3.4550609685916607	1.1106078178474057	0.0	3.443092382014081	1.1126194874486433	0.0	3.3992765199142805	1.263990406126059	0.0	3.3874745835068896	1.2031239498696653	0.0	3.3750208920904967	1.1700196720221239	0.0	3.3685378260662717	1.146339473348993	0.0	3.3608024054134304	1.1440260935640205	0.0	3.3736039321323092	1.1758588948133175	0.0	3.423469127130151	1.357358934334218	0.0	3.4298186031533535	1.382110130443861	0.0	3.4443323998476645	1.3765533773848633	0.0	3.439933039379894	1.351307080809183	0.0	3.440004002150286	1.3286163901465087	0.0	3.4690473495929792	1.3003903015808393	0.0	3.393838992903546	1.3443964696108082	0.0	3.36956457328185	1.3101899027261574	0.0	3.3870295071284713	1.2963246181389259	0.0
